<svg xmlns="http://www.w3.org/2000/svg" width="900" height="600" viewBox="0 0 900 600" role="img" aria-label="Dead Space cover">
  <defs>
    <linearGradient id="bg" x1="0" y1="0" x2="1" y2="1">
      <stop offset="0" stop-color="#241107"/>
      <stop offset="0.58" stop-color="#101827"/>
      <stop offset="1" stop-color="#dc2626"/>
    </linearGradient>
    <radialGradient id="halo" cx="76%" cy="18%" r="62%">
      <stop offset="0" stop-color="#fbbf24" stop-opacity="0.9"/>
      <stop offset="1" stop-color="#fbbf24" stop-opacity="0"/>
    </radialGradient>
    <filter id="soft">
      <feGaussianBlur stdDeviation="18"/>
    </filter>
  </defs>
  <rect width="900" height="600" fill="url(#bg)"/>
  <rect width="900" height="600" fill="url(#halo)"/>
  <g opacity="0.18" stroke="#f8fafc" stroke-width="2">
    <path d="M0 90 H900 M0 210 H900 M0 330 H900 M0 450 H900"/>
    <path d="M90 0 V600 M230 0 V600 M370 0 V600 M510 0 V600 M650 0 V600 M790 0 V600"/>
  </g>
  <path d="M348 88 C500 88 604 214 562 362 C532 468 456 554 348 594 C240 554 164 468 134 362 C92 214 196 88 348 88 Z" fill="#fbbf24" opacity="0.18" filter="url(#soft)"/>
  <path d="M348 88 C500 88 604 214 562 362 C532 468 456 554 348 594 C240 554 164 468 134 362 C92 214 196 88 348 88 Z" fill="none" stroke="#fbbf24" stroke-width="10" opacity="0.5"/>
  <path d="M348 88 C500 88 604 214 562 362 C532 468 456 554 348 594 C240 554 164 468 134 362 C92 214 196 88 348 88 Z" fill="#dc2626" opacity="0.18"/>
  <text x="70" y="76" fill="#b7c5d8" font-family="Inter, Arial, sans-serif" font-size="24" font-weight="800" letter-spacing="3">PS5 TOP 35</text>
  <text x="70" y="118" fill="#fbbf24" font-family="Inter, Arial, sans-serif" font-size="18" font-weight="900" letter-spacing="4">HORROR</text>
  <text x="70" y="256" fill="#f8fafc" font-family="Inter, Arial, sans-serif" font-size="58" font-weight="900">Dead Space</text>
  <text x="70" y="540" fill="#dbeafe" font-family="Inter, Arial, sans-serif" font-size="26" font-weight="800">Metascore 89 • PlayStation 5</text>
</svg>